<?xml version="1.0" encoding="UTF-8"?>
<svg width="24px" height="24px" viewBox="0 0 24 24" version="1.1" xmlns="http://www.w3.org/2000/svg" xmlns:xlink="http://www.w3.org/1999/xlink">
    <!-- Generator: Sketch 46.2 (44496) - http://www.bohemiancoding.com/sketch -->
    <title>fab-add</title>
    <desc>Created with Sketch.</desc>
    <defs></defs>
    <g id="Icons" stroke="none" stroke-width="1" fill="none" fill-rule="evenodd">
        <g id="fab-add" fill-rule="nonzero" fill="#000000">
            <path d="M13,13 L13,18 C13,18.5522847 12.5522847,19 12,19 C11.4477153,19 11,18.5522847 11,18 L11,6 L13,6 L13,13 L6,13 L6,11 L11,11 L13,13 Z M13,18 C13,18.5522847 12.5522847,19 12,19 C11.4477153,19 11,18.5522847 11,18 L11,6 L13,6 L13,13 L6,13 L6,11 L18,11 C18.5522847,11 19,11.4477153 19,12 C19,12.5522847 18.5522847,13 18,13 L13,13 L13,18 Z M11,12 L11,6 C11,4.66666667 13,4.66666667 13,6 L13,12 C13,12.5522847 12.5522847,13 12,13 L6,13 C4.66666667,13 4.66666667,11 6,11 L12,11 L11,12 Z" id="Path-2"></path>
        </g>
    </g>
</svg>